<?xml version="1.0" encoding="UTF-8" standalone="no"?>
<!-- Generator: Adobe Illustrator 21.1.0, SVG Export Plug-In . SVG Version: 6.00 Build 0)  -->

<svg
   xmlns:dc="http://purl.org/dc/elements/1.1/"
   xmlns:cc="http://creativecommons.org/ns#"
   xmlns:rdf="http://www.w3.org/1999/02/22-rdf-syntax-ns#"
   xmlns:svg="http://www.w3.org/2000/svg"
   xmlns="http://www.w3.org/2000/svg"
   xmlns:sodipodi="http://sodipodi.sourceforge.net/DTD/sodipodi-0.dtd"
   xmlns:inkscape="http://www.inkscape.org/namespaces/inkscape"
   version="1.1"
   id="Layer_1"
   x="0px"
   y="0px"
   viewBox="0 0 408.19855 112.8"
   xml:space="preserve"
   sodipodi:docname="silverdoor-footer.svg"
   width="408.19855"
   height="112.8"
   inkscape:version="0.92.2 (unknown)"><metadata
     id="metadata996"><rdf:RDF><cc:Work
         rdf:about=""><dc:format>image/svg+xml</dc:format><dc:type
           rdf:resource="http://purl.org/dc/dcmitype/StillImage" /><dc:title></dc:title></cc:Work></rdf:RDF></metadata><defs
     id="defs994" /><sodipodi:namedview
     pagecolor="#ffffff"
     bordercolor="#666666"
     borderopacity="1"
     objecttolerance="10"
     gridtolerance="10"
     guidetolerance="10"
     inkscape:pageopacity="0"
     inkscape:pageshadow="2"
     inkscape:window-width="1920"
     inkscape:window-height="1103"
     id="namedview992"
     showgrid="false"
     inkscape:zoom="2.0403587"
     inkscape:cx="204.49856"
     inkscape:cy="113.99122"
     inkscape:window-x="0"
     inkscape:window-y="27"
     inkscape:window-maximized="1"
     inkscape:current-layer="Layer_1"
     fit-margin-top="0"
     fit-margin-left="0"
     fit-margin-right="0"
     fit-margin-bottom="0" /><style
     type="text/css"
     id="style941">
	.st0{fill:#FFFFFF;}
</style><g
     id="g963"
     transform="translate(-47.501441,-263.4)"
     style="fill:#2a3056;fill-opacity:1"><path
       class="st0"
       d="m 133.9,370.6 h 4.5 l -2.3,-5.5 z m 3.5,-8.4 6.1,13.8 h -2.8 l -1.4,-3.4 h -6.1 l -1.3,3.4 H 129 l 5.7,-13.8 z"
       inkscape:connector-curvature="0"
       style="fill:#2a3056;fill-opacity:1" /><path
       class="st0"
       d="m 162,368.1 c 0.7,0 1.3,-0.2 1.7,-0.5 0.4,-0.3 0.6,-0.8 0.6,-1.4 0,-1.3 -0.8,-1.9 -2.5,-1.9 H 160 v 3.8 z m 0.6,-5.9 c 1.3,0 2.3,0.4 3.2,1.1 0.8,0.7 1.2,1.7 1.2,2.9 0,1.2 -0.4,2.2 -1.2,2.9 -0.8,0.7 -1.9,1.1 -3.2,1.1 H 160 v 5.8 h -2.7 v -13.8 z"
       inkscape:connector-curvature="0"
       style="fill:#2a3056;fill-opacity:1" /><path
       class="st0"
       d="m 184.8,370.6 h 4.5 l -2.3,-5.5 z m 3.5,-8.4 6.1,13.8 h -2.8 l -1.4,-3.4 H 184 l -1.3,3.4 h -2.8 l 5.7,-13.8 z"
       inkscape:connector-curvature="0"
       style="fill:#2a3056;fill-opacity:1" /><path
       class="st0"
       d="m 212.5,368.1 c 0.7,0 1.2,-0.2 1.6,-0.5 0.4,-0.3 0.6,-0.8 0.6,-1.4 0,-0.6 -0.2,-1.1 -0.6,-1.4 -0.4,-0.3 -1,-0.5 -1.7,-0.5 h -1.7 v 3.8 z m 0.6,-5.9 c 1.3,0 2.4,0.4 3.2,1.1 0.8,0.7 1.2,1.7 1.2,2.8 0,0.8 -0.2,1.5 -0.6,2.1 -0.4,0.6 -1,1 -1.8,1.4 0.4,0.2 0.8,0.6 1.2,1 0.3,0.4 0.8,1.1 1.3,2.1 0.8,1.7 1.5,2.8 1.9,3.5 h -3 c -0.2,-0.3 -0.5,-0.8 -0.8,-1.5 -0.8,-1.5 -1.3,-2.5 -1.7,-3 -0.4,-0.5 -0.7,-0.9 -1,-1.1 -0.3,-0.2 -0.7,-0.3 -1.1,-0.3 h -1 v 5.8 h -2.7 v -13.8 h 4.9 z"
       inkscape:connector-curvature="0"
       style="fill:#2a3056;fill-opacity:1" /><polygon
       class="st0"
       points="237.2,376 237.2,364.3 232.3,364.3 232.3,362.2 244.8,362.2 244.8,364.3 239.9,364.3 239.9,376 "
       id="polygon951"
       style="fill:#2a3056;fill-opacity:1" /><polygon
       class="st0"
       points="272.9,376 270.2,376 270.2,366.3 270.1,366.3 266.1,371.2 265.7,371.2 261.7,366.3 261.7,366.3 261.7,376 259,376 259,362.2 261.4,362.2 265.9,367.7 270.5,362.2 272.9,362.2 "
       id="polygon953"
       style="fill:#2a3056;fill-opacity:1" /><polygon
       class="st0"
       points="296.7,367.9 296.7,370 290.7,370 290.7,373.9 297.1,373.9 297.1,376 288.1,376 288.1,362.2 297,362.2 297,364.3 290.7,364.3 290.7,367.9 "
       id="polygon955"
       style="fill:#2a3056;fill-opacity:1" /><polygon
       class="st0"
       points="324.9,376 322.6,376 314.4,366.2 314.4,376 311.8,376 311.8,362.2 314.1,362.2 322.3,371.8 322.3,362.2 324.9,362.2 "
       id="polygon957"
       style="fill:#2a3056;fill-opacity:1" /><polygon
       class="st0"
       points="344,376 344,364.3 339.1,364.3 339.1,362.2 351.6,362.2 351.6,364.3 346.7,364.3 346.7,376 "
       id="polygon959"
       style="fill:#2a3056;fill-opacity:1" /><path
       class="st0"
       d="m 369.8,362 c 1.3,0 2.6,0.3 3.9,1 v 2.4 c -1.4,-0.9 -2.7,-1.3 -3.8,-1.3 -0.7,0 -1.2,0.1 -1.6,0.4 -0.4,0.3 -0.6,0.6 -0.6,1 0,0.5 0.4,1 1.1,1.4 0.2,0.1 1,0.5 2.3,1.1 1.1,0.5 2,1.1 2.5,1.8 0.5,0.7 0.8,1.4 0.8,2.4 0,1.2 -0.4,2.1 -1.3,2.9 -0.9,0.7 -2,1.1 -3.3,1.1 -0.9,0 -1.6,-0.1 -2.3,-0.3 -0.6,-0.2 -1.4,-0.5 -2.1,-1 v -2.6 c 1.5,1.2 2.9,1.8 4.2,1.8 0.7,0 1.2,-0.1 1.6,-0.4 0.4,-0.3 0.6,-0.7 0.6,-1.1 0,-0.6 -0.3,-1.2 -1,-1.6 -0.6,-0.3 -1.3,-0.7 -2.2,-1.1 -1.1,-0.5 -1.9,-1.1 -2.4,-1.7 -0.5,-0.7 -0.8,-1.4 -0.8,-2.3 0,-1.2 0.4,-2.1 1.3,-2.8 0.5,-0.7 1.7,-1.1 3.1,-1.1"
       inkscape:connector-curvature="0"
       style="fill:#2a3056;fill-opacity:1" /></g><path
     class="st0"
     d="M 26.098559,73.1 C 8.7985594,73.1 1.1985594,67.4 1.1985594,67.4 V 48.7 h 1.5 c 1.6,8.9 6.5,23 23.4999996,23 12.6,0 15.2,-15.3 3.5,-23.6 l -15.5,-9.9 C 2.4985594,30.7 -4.5014406,21.4 3.2985594,10.4 c 0,0 4.8,-7.5 19.2999996,-7.5 15.4,0 23.5,4.7 23.5,4.7 v 16.3 h -1.5 c -1.4,-7.4 -6.2,-19.6 -22.1,-19.6 -10.5,0 -16.3999996,13.2 -2.8,22.1 l 15.6,10.2 c 12.9,8.6 16.7,19.2 10.5,28.5 0,0 -4.3,8 -19.7,8"
     inkscape:connector-curvature="0"
     style="fill:#2a3056;fill-opacity:1" /><path
     class="st0"
     d="m 54.398559,12.7 c 0,-3.2 2.5,-5.8 5.7,-5.8 3.2,0 5.9,2.6 5.9,5.8 0,3.2 -2.7,5.7 -5.9,5.7 -3.2,0 -5.7,-2.5 -5.7,-5.7 m 15.8,59.5 h -18.1 v -1.5 c 3.7,-1.2 3.9,-4 3.9,-8.9 V 37.5 c 0,-3.3 -1,-4.7 -5,-6.3 v -1.5 l 15.2,-3.3 v 35.4 c 0,5.4 0.5,8 4,8.9 z"
     inkscape:connector-curvature="0"
     style="fill:#2a3056;fill-opacity:1" /><path
     class="st0"
     d="m 92.398559,72.2 h -18.2 v -1.5 c 3.7,-1.1 3.9,-4 3.9,-8.9 V 10.5 c 0,-3.4 -0.9,-4.9 -4.9,-5.9 V 3.1 l 15.2,-3.1 v 61.8 c 0,5.4 0.5,8.1 4,8.9 z"
     inkscape:connector-curvature="0"
     style="fill:#2a3056;fill-opacity:1" /><path
     class="st0"
     d="m 141.99856,27.3 v 1.4 c -2.9,0 -6.5,0.2 -12.2,13.8 l -11.9,30.7 h -1.3 C 99.398559,35.8 98.298559,33.8 98.298559,33.8 c -2.3,-5 -5,-5 -6.7,-5.1 v -1.4 h 21.600001 v 1.4 c -5.9,0 -2.4,7.1 -2.4,7.1 l 10.9,23.5 6.4,-16.6 c 0,0 5.5,-13.9 -5.1,-13.9 v -1.4 h 19 z"
     inkscape:connector-curvature="0"
     style="fill:#2a3056;fill-opacity:1" /><path
     class="st0"
     d="m 167.59856,47.4 c 0,-13.2 -5.2,-19.6 -10.1,-19.6 -5.6,0 -10.7,8.8 -10.7,19.6 z m 8.5,13.2 c -1.3,4.8 -6.9,12.6 -19.2,12.6 -12.4,0 -21.1,-10.9 -21.1,-23.1 0,-14 9.2,-23.6 22,-23.6 12.7,0 19.9,7.2 19.9,22.5 h -30.9 c 0.6,11.3 5.9,16.4 12.9,17.5 5.6,0.9 12.9,-1.9 15.1,-6.5 z"
     inkscape:connector-curvature="0"
     style="fill:#2a3056;fill-opacity:1" /><path
     class="st0"
     d="m 212.39856,28.4 c 2.4,2.4 2.4,6.4 0,8.9 -2.4,2.4 -6.3,2.5 -9,0.1 -1.2,-1.3 -1.8,-2.8 -1.7,-4.3 0.2,-1.4 -5.1,0.3 -8.4,6.4 v 22.3 c 0,5.4 0.5,8.1 4,9 v 1.5 h -18.3 v -1.5 c 3.7,-1.2 3.9,-4 3.9,-9 V 37.5 c 0,-3.3 -0.9,-4.8 -4.9,-6.2 v -1.5 l 15.3,-3.3 V 37 c 4.4,-7.3 9.1,-9.3 12.3,-10.1 2.1,-0.6 5.1,-0.2 6.8,1.5"
     inkscape:connector-curvature="0"
     style="fill:#2a3056;fill-opacity:1" /><path
     class="st0"
     d="m 234.49856,5.2 h -4.3 v 65.6 h 4.3 c 9.9,0 25.3,-1.3 25.3,-32.6 0,-30.9 -15.2,-33 -25.3,-33 m 0,67 h -23.4 v -1.5 c 4.2,0 6.9,-4.4 6.9,-11 V 16.1 c 0,-6 -2.6,-11 -6.9,-11 V 3.6 h 23.4 c 19.4,0 39.7,5.9 39.7,34.4 0,29.2 -20.3,34.2 -39.7,34.2"
     inkscape:connector-curvature="0"
     style="fill:#2a3056;fill-opacity:1" /><path
     class="st0"
     d="m 300.59856,27.9 c -7.2,0 -10.6,4.3 -10.6,21.9 0,17.6 3.4,21.9 10.6,21.9 7.3,0 10.6,-4.3 10.6,-21.9 0,-17.6 -3.3,-21.9 -10.6,-21.9 m 0,45.2 c -14.8,0 -22.8,-10.6 -22.8,-23.4 0,-12.8 8,-23.4 22.8,-23.4 14.9,0 22.9,10.5 22.9,23.4 0,12.8 -8,23.4 -22.9,23.4"
     inkscape:connector-curvature="0"
     style="fill:#2a3056;fill-opacity:1" /><path
     class="st0"
     d="m 349.09856,27.9 c -7.2,0 -10.6,4.3 -10.6,21.9 0,17.6 3.4,21.9 10.6,21.9 7.3,0 10.6,-4.3 10.6,-21.9 0,-17.6 -3.3,-21.9 -10.6,-21.9 m 0,45.2 c -14.8,0 -22.8,-10.6 -22.8,-23.4 0,-12.8 8,-23.4 22.8,-23.4 14.9,0 22.9,10.5 22.9,23.4 -0.1,12.8 -8.1,23.4 -22.9,23.4"
     inkscape:connector-curvature="0"
     style="fill:#2a3056;fill-opacity:1" /><path
     class="st0"
     d="m 406.39856,28.4 c 2.4,2.4 2.4,6.4 0,8.9 -2.4,2.4 -6.3,2.5 -9,0.1 -1.2,-1.3 -1.8,-2.8 -1.7,-4.3 0.2,-1.4 -5.1,0.3 -8.4,6.4 v 22.3 c 0,5.4 0.5,8.1 4,9 v 1.5 h -18.3 v -1.5 c 3.7,-1.2 3.9,-4 3.9,-9 V 37.5 c 0,-3.3 -0.9,-4.8 -4.9,-6.2 v -1.5 l 15.3,-3.3 V 37 c 4.4,-7.3 9.1,-9.3 12.3,-10.1 2,-0.6 5,-0.2 6.8,1.5"
     inkscape:connector-curvature="0"
     style="fill:#2a3056;fill-opacity:1" /></svg>
