<?xml version="1.0" standalone="no"?>
<!DOCTYPE svg PUBLIC "-//W3C//DTD SVG 20010904//EN"
 "http://www.w3.org/TR/2001/REC-SVG-20010904/DTD/svg10.dtd">
<svg version="1.0" xmlns="http://www.w3.org/2000/svg"
 width="256.000000pt" height="256.000000pt" viewBox="0 0 256.000000 256.000000"
 preserveAspectRatio="xMidYMid meet">
<metadata>
Created by potrace 1.16, written by Peter Selinger 2001-2019
</metadata>
<g transform="translate(0.000000,256.000000) scale(0.100000,-0.100000)"
fill="#000000" stroke="none">
<path d="M0 1280 l0 -1280 1280 0 1280 0 0 1280 0 1280 -1280 0 -1280 0 0
-1280z m1657 1095 c70 -32 175 -133 224 -216 44 -73 99 -216 99 -256 0 -24 -3
-25 -35 -20 -19 3 -35 2 -35 -3 0 -10 181 -177 309 -286 l81 -69 -39 -19 c-36
-18 -46 -18 -108 -7 -37 7 -84 11 -103 9 l-35 -3 83 -64 82 -64 -1 -46 c-3
-93 -4 -96 -119 -152 -58 -28 -139 -67 -180 -86 -70 -33 -73 -36 -50 -45 35
-13 65 -5 172 46 51 25 112 52 135 60 l42 15 37 -41 c20 -22 48 -65 61 -95 21
-45 25 -66 21 -120 -4 -62 -6 -68 -46 -104 -23 -22 -46 -39 -51 -39 -5 0 -11
17 -13 37 l-3 38 -50 -50 c-28 -28 -64 -77 -81 -109 l-32 -59 -15 29 c-78 152
-235 271 -446 338 -182 59 -286 136 -346 259 -39 80 -60 191 -51 266 5 43 3
41 -19 -25 -67 -199 -51 -399 43 -533 21 -30 48 -61 60 -69 l23 -15 -22 54
c-47 119 -50 130 -31 120 9 -5 57 -46 106 -92 l88 -83 -7 42 c-4 23 -4 42 0
42 3 0 53 -22 111 -49 263 -124 394 -263 394 -417 0 -83 -47 -178 -126 -254
-31 -30 -53 -46 -49 -35 48 125 60 234 36 310 -21 62 -70 133 -119 171 -25 19
-47 33 -49 31 -2 -3 6 -25 17 -51 66 -156 66 -327 0 -456 -10 -19 -35 -55 -56
-79 -38 -43 -39 -44 -45 -20 -4 13 -7 43 -8 67 -1 23 -5 42 -10 42 -5 0 -37
-13 -72 -29 -35 -16 -75 -32 -88 -36 -23 -7 -23 -6 -15 31 5 22 9 86 9 144 0
92 -3 112 -26 160 -14 30 -36 66 -48 80 l-21 25 8 -45 c17 -108 -2 -240 -36
-240 -10 0 -62 22 -117 49 -161 79 -307 217 -389 368 -36 65 -37 66 -31 28 12
-72 47 -163 86 -222 20 -32 36 -59 34 -61 -12 -12 -159 84 -225 145 -88 82
-140 169 -165 274 -16 70 -19 203 -6 261 13 56 -2 39 -71 -80 -70 -119 -75
-118 -77 8 -1 118 49 249 154 394 30 42 47 72 37 67 -23 -13 -133 -108 -154
-135 -24 -29 -23 -10 2 90 47 180 166 366 276 430 l42 25 -43 40 c-37 34 -75
95 -64 102 2 2 43 10 90 20 103 20 215 56 306 97 l68 31 -40 22 c-33 19 -112
113 -103 123 2 1 30 -7 63 -18 85 -30 223 -29 330 1 108 31 201 30 294 -2 l72
-25 -21 35 -21 36 32 -7 c18 -3 57 -17 86 -31z m648 -1083 c-8 -26 -24 -58
-34 -72 -19 -24 -20 -24 -40 -6 -22 20 -26 59 -13 127 5 27 18 45 52 71 l45
34 3 -54 c2 -31 -4 -74 -13 -100z"/>
<path d="M1310 2079 c-47 -10 -140 -24 -207 -31 -134 -13 -140 -17 -122 -81
12 -39 26 -58 62 -82 26 -17 27 -19 12 -39 -37 -52 -37 -54 0 -46 20 4 66 26
103 47 37 22 78 45 92 51 24 10 24 11 -10 12 -19 0 -53 9 -75 19 l-40 18 50 7
c101 15 183 57 224 115 26 36 27 36 -89 10z"/>
<path d="M1515 1866 c-37 -16 -88 -67 -78 -77 4 -4 82 -23 173 -44 91 -20 174
-39 185 -42 15 -5 11 4 -16 34 -21 23 -40 56 -44 74 -14 73 -8 69 -103 69 -49
-1 -100 -6 -117 -14z"/>
<path d="M889 1693 c-169 -113 -250 -243 -249 -403 l1 -55 33 85 c31 83 97
222 102 217 2 -1 -6 -34 -17 -72 -30 -106 -28 -247 5 -351 40 -127 147 -262
267 -338 l30 -19 -35 64 c-42 78 -81 208 -91 309 -7 65 -9 71 -17 45 -4 -16
-12 -61 -16 -100 l-7 -70 -27 56 c-37 77 -47 128 -48 240 0 106 19 196 69 324
17 44 29 80 28 82 -2 1 -14 -5 -28 -14z"/>
</g>
</svg>
